<svg id="visual" viewBox="0 0 900 600" width="900" height="600" xmlns="http://www.w3.org/2000/svg"
     version="1.1">
    <path d="M0 127L41 121L82 127L123 109L164 127L205 109L245 115L286 103L327 127L368 127L409 151L450 109L491 151L532 139L573 115L614 109L655 103L695 121L736 115L777 145L818 127L859 121L900 109L900 0L859 0L818 0L777 0L736 0L695 0L655 0L614 0L573 0L532 0L491 0L450 0L409 0L368 0L327 0L286 0L245 0L205 0L164 0L123 0L82 0L41 0L0 0Z"
          fill="#86198f"></path>
    <path d="M0 157L41 145L82 151L123 139L164 163L205 145L245 151L286 133L327 163L368 151L409 175L450 133L491 181L532 163L573 151L614 145L655 139L695 151L736 151L777 175L818 163L859 157L900 145L900 107L859 119L818 125L777 143L736 113L695 119L655 101L614 107L573 113L532 137L491 149L450 107L409 149L368 125L327 125L286 101L245 113L205 107L164 125L123 107L82 125L41 119L0 125Z"
          fill="#8e1c8c"></path>
    <path d="M0 193L41 175L82 187L123 175L164 199L205 175L245 187L286 163L327 193L368 187L409 211L450 163L491 211L532 193L573 187L614 175L655 175L695 187L736 187L777 211L818 193L859 193L900 181L900 143L859 155L818 161L777 173L736 149L695 149L655 137L614 143L573 149L532 161L491 179L450 131L409 173L368 149L327 161L286 131L245 149L205 143L164 161L123 137L82 149L41 143L0 155Z"
          fill="#951f88"></path>
    <path d="M0 223L41 199L82 211L123 199L164 223L205 199L245 217L286 193L327 217L368 217L409 235L450 193L491 241L532 223L573 217L614 205L655 199L695 211L736 211L777 241L818 217L859 217L900 205L900 179L859 191L818 191L777 209L736 185L695 185L655 173L614 173L573 185L532 191L491 209L450 161L409 209L368 185L327 191L286 161L245 185L205 173L164 197L123 173L82 185L41 173L0 191Z"
          fill="#9c2485"></path>
    <path d="M0 253L41 229L82 247L123 235L164 253L205 235L245 247L286 223L327 247L368 247L409 271L450 235L491 271L532 259L573 247L614 235L655 229L695 253L736 247L777 283L818 259L859 259L900 241L900 203L859 215L818 215L777 239L736 209L695 209L655 197L614 203L573 215L532 221L491 239L450 191L409 233L368 215L327 215L286 191L245 215L205 197L164 221L123 197L82 209L41 197L0 221Z"
          fill="#a12882"></path>
    <path d="M0 361L41 355L82 379L123 391L164 373L205 379L245 361L286 379L327 373L368 361L409 397L450 355L491 385L532 385L573 385L614 397L655 379L695 373L736 391L777 397L818 367L859 391L900 373L900 239L859 257L818 257L777 281L736 245L695 251L655 227L614 233L573 245L532 257L491 269L450 233L409 269L368 245L327 245L286 221L245 245L205 233L164 251L123 233L82 245L41 227L0 251Z"
          fill="#a72e80"></path>
    <path d="M0 397L41 403L82 421L123 427L164 409L205 427L245 409L286 415L327 415L368 409L409 433L450 397L491 433L532 427L573 421L614 445L655 421L695 421L736 427L777 439L818 403L859 433L900 421L900 371L859 389L818 365L777 395L736 389L695 371L655 377L614 395L573 383L532 383L491 383L450 353L409 395L368 359L327 371L286 377L245 359L205 377L164 371L123 389L82 377L41 353L0 359Z"
          fill="#ab337d"></path>
    <path d="M0 457L41 457L82 493L123 493L164 481L205 493L245 475L286 463L327 475L368 469L409 487L450 463L491 481L532 475L573 481L614 493L655 481L695 481L736 481L777 493L818 463L859 487L900 469L900 419L859 431L818 401L777 437L736 425L695 419L655 419L614 443L573 419L532 425L491 431L450 395L409 431L368 407L327 413L286 413L245 407L205 425L164 407L123 425L82 419L41 401L0 395Z"
          fill="#b0387b"></path>
    <path d="M0 547L41 553L82 553L123 559L164 559L205 559L245 547L286 547L327 559L368 559L409 559L450 547L491 547L532 553L573 547L614 559L655 547L695 553L736 553L777 553L818 553L859 559L900 553L900 467L859 485L818 461L777 491L736 479L695 479L655 479L614 491L573 479L532 473L491 479L450 461L409 485L368 467L327 473L286 461L245 473L205 491L164 479L123 491L82 491L41 455L0 455Z"
          fill="#b43e7a"></path>
    <path d="M0 601L41 601L82 601L123 601L164 601L205 601L245 601L286 601L327 601L368 601L409 601L450 601L491 601L532 601L573 601L614 601L655 601L695 601L736 601L777 601L818 601L859 601L900 601L900 551L859 557L818 551L777 551L736 551L695 551L655 545L614 557L573 545L532 551L491 545L450 545L409 557L368 557L327 557L286 545L245 545L205 557L164 557L123 557L82 551L41 551L0 545Z"
          fill="#b74478"></path>
</svg>